<?xml version="1.0" encoding="iso-8859-1"?>
<!-- Generator: Adobe Illustrator 19.0.0, SVG Export Plug-In . SVG Version: 6.00 Build 0)  -->
<svg version="1.1" id="Capa_1" xmlns="http://www.w3.org/2000/svg" xmlns:xlink="http://www.w3.org/1999/xlink" x="0px" y="0px"
	 viewBox="0 0 512 512" style="enable-background:new 0 0 512 512;" xml:space="preserve">
<g>
	<g>
		<path d="M264.546,247.467h-17.067c-4.713,0-8.533,3.82-8.533,8.533s3.82,8.533,8.533,8.533h17.067c4.713,0,8.533-3.82,8.533-8.533
			S269.259,247.467,264.546,247.467z"/>
	</g>
</g>
<g>
	<g>
		<path d="M230.412,187.733h-34.133c-4.713,0-8.533,3.82-8.533,8.533s3.82,8.533,8.533,8.533h8.533v8.533
			c0,4.713,3.821,8.533,8.533,8.533c4.713,0,8.533-3.821,8.533-8.533V204.8h8.533c4.713,0,8.533-3.82,8.533-8.533
			S235.125,187.733,230.412,187.733z"/>
	</g>
</g>
<g>
	<g>
		<path d="M315.746,187.733h-34.133c-4.713,0-8.533,3.82-8.533,8.533s3.82,8.533,8.533,8.533h8.533v8.533
			c0,4.713,3.82,8.533,8.533,8.533s8.533-3.821,8.533-8.533V204.8h8.533c4.713,0,8.533-3.82,8.533-8.533
			S320.459,187.733,315.746,187.733z"/>
	</g>
</g>
<g>
	<g>
		<path d="M273.079,281.6h-34.133c-4.713,0-8.533,3.82-8.533,8.533s3.82,8.533,8.533,8.533h34.133c4.713,0,8.533-3.82,8.533-8.533
			S277.792,281.6,273.079,281.6z"/>
	</g>
</g>
<g>
	<g>
		<path d="M461.837,478.617l-11.358-35.541c-9.616-25.72-29.038-46.578-54.008-58c-0.336-0.19-0.686-0.355-1.046-0.495
			c-11.146-4.979-23.085-7.945-35.265-8.761c-0.568-0.181-1.154-0.3-1.748-0.353c-0.36,0.047-0.716,0.119-1.067,0.215
			c-1.475-0.062-2.932-0.215-4.417-0.215h-23.323c-5.022-16.471-6.02-33.906-2.91-50.842c1.066-9.032,2.587-18.004,4.556-26.883
			c10.57-11.568,17.087-26.261,18.569-41.86c1.078,0.311,2.188,0.496,3.308,0.552c1.556-0.002,3.101-0.258,4.575-0.758
			c4.4-1.467,17.775-5.925,17.775-59.408c0.142-5.777-0.648-11.54-2.338-17.067h19.405v-34.133
			c-0.033-10.813-6.868-20.435-17.067-24.028V102.4c-0.069-44.348-34.068-81.264-78.26-84.975
			C293.736,7.045,284.028,0.037,273.079,0h-39.467c-11.185,0.039-21.043,7.349-24.33,18.04c-41.735,6.328-72.62,42.148-72.736,84.36
			v18.639c-10.199,3.592-17.033,13.214-17.067,24.028V179.2h19.405c-1.69,5.526-2.48,11.289-2.338,17.067
			c0,53.483,13.375,57.941,17.775,59.408c1.474,0.5,3.019,0.756,4.575,0.758c1.12-0.056,2.23-0.242,3.308-0.552
			c1.48,15.6,7.998,30.294,18.569,41.862c1.973,8.894,3.494,17.883,4.556,26.931c3.108,16.92,2.11,34.338-2.91,50.792h-23.323
			c-1.485,0-2.942,0.154-4.416,0.215c-0.351-0.096-0.707-0.168-1.068-0.215c-0.594,0.053-1.18,0.171-1.748,0.352
			c-12.18,0.816-24.119,3.782-35.265,8.762c-0.359,0.14-0.708,0.305-1.044,0.494c-25.106,11.481-44.596,32.501-54.152,58.401
			l-11.208,35.133c-2.532,7.782-1.151,16.307,3.708,22.892c4.792,6.633,12.492,10.543,20.675,10.5h362.867
			c14.139,0.001,25.602-11.46,25.603-25.599C463.049,483.759,462.64,481.133,461.837,478.617z M110.946,494.933H74.579
			c-4.711,0.002-8.531-3.816-8.532-8.526c0-0.885,0.137-1.764,0.407-2.607l11.075-34.742c4.349-11.651,11.159-22.228,19.967-31.008
			c4.108-4.109,8.614-7.801,13.45-11.022V494.933z M145.079,494.933h-17.067v-96.625c5.518-2.1,11.237-3.629,17.067-4.562V494.933z
			 M179.212,494.933h-17.067v-102.4h17.067V494.933z M358.412,196.267c0,26.717-3.717,38.675-5.842,42.375h0
			c-1.346-1.181-2.57-2.495-3.651-3.923c-0.495-16.611,1.142-33.216,4.87-49.41c0.873-0.681,1.834-1.242,2.856-1.667
			C358.125,187.677,358.727,191.981,358.412,196.267z M298.679,34.726c34.098,4.323,59.678,33.303,59.733,67.674v17.067h-59.733
			V34.726z M225.079,25.6c0.003-4.711,3.822-8.53,8.533-8.533h39.467c4.711,0.003,8.53,3.822,8.533,8.533v93.867h-56.533V25.6z
			 M153.612,102.4c0.097-32.311,22.776-60.154,54.4-66.785v83.852h-54.4V102.4z M136.546,162.133v-17.067
			c0.003-4.711,3.822-8.53,8.533-8.533h221.867c4.711,0.003,8.53,3.822,8.533,8.533v17.067H136.546z M163.106,234.717
			c-1.082,1.428-2.305,2.743-3.652,3.925c-2.125-3.7-5.842-15.658-5.842-42.375c-0.314-4.286,0.289-8.59,1.766-12.625
			c1.024,0.433,1.986,0.999,2.862,1.683C161.963,201.514,163.599,218.113,163.106,234.717z M179.212,255.317
			c0-1.892,0.075-3.775,0.225-5.533c2.224-23.648,0.5-47.501-5.101-70.583h163.353c-5.6,23.063-7.324,46.896-5.102,70.525
			c0.15,1.817,0.225,3.7,0.225,5.592c0,16.525-17.85,40.083-50.275,66.35c-15.472,12.543-37.615,12.532-53.075-0.025
			C197.062,295.4,179.212,271.842,179.212,255.317z M247.479,494.933h-51.2v-94.551c3.567,4.123,7.317,8.96,10.692,13.326
			c11.829,15.327,25.021,32.256,40.508,37.088V494.933z M220.479,403.283c-6.141-8.779-13.297-16.803-21.319-23.905
			c5.258-18.42,6.323-37.784,3.119-56.67v0c-0.09-0.797-0.248-1.631-0.346-2.432c5.154,4.782,10.621,9.627,16.771,14.607
			c21.734,17.635,52.846,17.646,74.592,0.025c6.157-4.986,11.629-9.837,16.79-14.625c-0.096,0.781-0.252,1.598-0.34,2.374
			c-3.206,18.903-2.14,38.283,3.119,56.72c-8.022,7.102-15.178,15.125-21.319,23.905C280.571,417.5,266.912,435.2,256.012,435.2
			S231.454,417.5,220.479,403.283z M315.746,494.933h-51.2v-44.137c15.488-4.832,28.679-21.76,40.508-37.088
			c3.375-4.366,7.125-9.203,10.692-13.326V494.933z M349.879,494.933h-17.067v-102.4h17.067V494.933z M384.012,494.933h-17.067
			V393.747c5.83,0.933,11.549,2.461,17.067,4.561V494.933z M440.034,494.531c-0.837,0.266-1.71,0.402-2.589,0.402h-36.367v-87.906
			c4.836,3.221,9.341,6.913,13.45,11.022c8.717,8.671,15.477,19.108,19.825,30.608l11.225,35.15
			C447.009,488.301,444.527,493.101,440.034,494.531z"/>
	</g>
</g>
<g>
</g>
<g>
</g>
<g>
</g>
<g>
</g>
<g>
</g>
<g>
</g>
<g>
</g>
<g>
</g>
<g>
</g>
<g>
</g>
<g>
</g>
<g>
</g>
<g>
</g>
<g>
</g>
<g>
</g>
</svg>
