<svg id="Capa_1" enable-background="new 0 0 512 512" height="512" viewBox="0 0 512 512" width="512" xmlns="http://www.w3.org/2000/svg"><g><g><path d="m483.25 437.211h-38.764v-66.333h11.392c12.007 0 21.775-9.769 21.775-21.775s-9.769-21.775-21.775-21.775h-37.783c-12.007 0-21.775 9.769-21.775 21.775s9.769 21.775 21.775 21.775h11.392v66.333h-400.737c-15.853 0-28.75 12.897-28.75 28.75s12.897 28.75 28.75 28.75h322.682c4.143 0 7.5-3.358 7.5-7.5s-3.357-7.5-7.5-7.5h-322.682c-7.582 0-13.75-6.168-13.75-13.75s6.168-13.75 13.75-13.75h454.5c7.582 0 13.75 6.168 13.75 13.75s-6.168 13.75-13.75 13.75h-96.756c-4.143 0-7.5 3.358-7.5 7.5s3.357 7.5 7.5 7.5h96.756c15.853 0 28.75-12.897 28.75-28.75s-12.897-28.75-28.75-28.75zm-71.931-88.108c0-3.736 3.039-6.775 6.775-6.775h37.783c3.736 0 6.775 3.04 6.775 6.775s-3.039 6.775-6.775 6.775h-37.783c-3.736 0-6.775-3.04-6.775-6.775z"/><path d="m34.718 187.126c-2.192 6.083-.771 12.893 3.911 17.574l18.789 18.79c6.546 6.546 17.202 6.548 23.751 0l3.413-3.413 19.415 19.415c2.19 2.19 3.923 4.746 5.148 7.592 9.64 21.414 9.292 23.959 17.262 37.141l-22.451 20.55c-14.493 13.266-14.679 36.097-.403 49.598l14.269 13.494c13.488 12.755 34.857 12.16 47.643-1.08l24.055-24.909c11.923-.412 21.36-8.735 24.019-19.179 14.867 6.014 31.618-2.761 34.93-18.644 14.731 4.244 29.014-4.604 32.372-18.498 25.819 8.881 46.011-23.396 26.701-42.704l-11.384-11.4 49.328-51.08c7.059 4.844 16.813 4.173 23.141-2.155l.336-.336 13.493 13.494-.056.056c-7.252 7.253-7.252 19.054 0 26.307l13.869 13.869c7.27 7.269 19.035 7.271 26.308 0l44.047-44.047c7.251-7.253 7.251-19.054 0-26.306l-13.869-13.869c-.001 0-.001 0-.001 0-6.823-6.822-17.568-7.223-24.854-1.303l-13.653-13.653c5.882-7.343 5.428-18.122-1.376-24.927l-57.297-57.297c-38.62-38.619-82.624-43.557-117.712-13.211-6.897 5.962-3.418 17.337 5.651 18.44 9.242 1.124 31.733 5.174 40.923 18.465 4.214 6.094 5.173 13.512 2.932 22.676-2.852 11.663.056 24.106 7.573 33.382l-31.843 29.148c-12.638-10.243-27.906-15.044-42.825-13.271l-15.925 1.894c-7.454.89-14.777-1.65-20.086-6.959l-10.187-10.186 3.133-3.133c6.563-6.561 6.566-17.186.001-23.75l-18.789-18.791c-4.619-4.62-11.374-6.113-17.502-3.937l-28.726-28.726c-8.008-8.007-21.035-8.007-29.043 0l-77.134 77.134c-8.007 8.007-8.007 21.035 0 29.042zm119.956 169.241c-7.153 7.409-19.063 7.677-26.545.602l-14.269-13.494c-7.941-7.51-7.898-20.2.226-27.635l20.858-19.092c8.498 11.143 13.264 14.748 35.404 37.584.958.958 1.99 1.83 3.077 2.618zm224.895-189.093 24.155-24.155 13.493 13.494-24.156 24.155zm62.577-9.284 13.869 13.869c1.404 1.404 1.404 3.689 0 5.094l-44.046 44.046c-1.41 1.409-3.691 1.404-5.094 0l-13.869-13.869c-1.404-1.404-1.404-3.689 0-5.094l44.047-44.046c1.405-1.405 3.686-1.407 5.093 0zm-186.441-115.734c27.298-17.861 59.326-11.38 89.261 18.554l57.297 57.297c1.45 1.45 1.45 3.81 0 5.26l-44.244 44.244c-1.249 1.25-3.279 1.253-4.531 0l-45.297-45.296c-5.786-5.786-8.183-14.284-6.253-22.177 3.272-13.382 1.535-25.081-5.164-34.77-9.564-13.833-27.172-20.192-41.069-23.112zm.939 143.092c17.93-16.412 41.408-37.903 48.746-44.621l29.265 29.265-49.099 50.844-28.723-28.763c-1.87-1.872-1.955-4.864-.189-6.725zm-82.99-33.974c8.581 8.581 20.41 12.676 32.465 11.248l15.925-1.894c10.179-1.21 20.725 1.905 29.831 8.648-6.515 5.967-5.567 5.09-5.747 5.271-7.653 7.647-7.725 20.21.096 28.028l50.707 50.78c10.143 10.143-5.186 25.466-15.325 15.326-6.182-6.169-17.133-.486-15.284 8.468 2.19 10.593-10.714 17.399-18.602 9.511-6.166-6.154-16.892.156-14.188 8.801 3.198 10.233-8.974 18.682-17.477 11.317-6.868-5.905-17.481-.536-16.763 8.505.792 10.001-11.322 15.356-18.296 8.384-20.645-21.58-28.606-27.37-38.77-42.616-.033-.046-.061-.093-.095-.138-9.746-14.659-11.371-22.772-19.208-39.859-1.98-4.602-4.78-8.73-8.32-12.271l-19.414-19.415 68.28-68.281zm-157.032-11.386 77.134-77.134c2.158-2.158 5.67-2.158 7.828 0l27.571 27.571-9.314 9.314c-2.929 2.929-2.929 7.678 0 10.606 2.93 2.93 7.678 2.929 10.607 0 7.764-7.765 10.168-10.169 14.828-14.829.701-.701 1.834-.702 2.536 0l18.79 18.79c.702.703.702 1.833-.001 2.537-11.727 11.727-87.615 87.616-96.039 96.04-.701.7-1.839.7-2.538 0l-18.789-18.79c-.702-.703-.702-1.834.001-2.537 2.214-2.214 54.113-54.112 56.419-56.418 2.929-2.929 2.929-7.678 0-10.606s-7.677-2.93-10.607 0l-50.856 50.855-27.57-27.57c-2.165-2.165-2.164-5.665 0-7.829z"/></g></g></svg>